<svg width="50" height="50" viewBox="0 0 115 115" fill="none" xmlns="http://www.w3.org/2000/svg">
<path d="M36.6801 67.0772H14.0356L3.74239 94.6585L1.59101 96.0663L0 94.6585L34.5287 2.15688L36.6801 0L38.738 2.15688L73.4535 94.6585L71.6757 96.0663L69.7111 94.6585L59.3245 67.0772C57.4533 67.0772 49.9052 67.0772 36.6801 67.0772ZM27.6043 80.2124C27.6043 80.1522 27.6043 80.0887 27.6043 80.0252L3.27542 91.3747L3.36881 91.5619L27.6043 80.2124ZM3.36881 91.5619C3.36881 91.5017 3.33546 91.4382 3.27542 91.3747L37.8975 90.3414V90.435L3.36881 91.5619ZM14.0356 67.0772C14.0356 67.017 14.0656 66.9535 14.129 66.8899L38.4579 90.3447L38.3645 90.4384L14.0356 67.0772ZM36.6801 63.6061H58.0136L38.6446 11.5401L36.7734 6.00582H36.5867L34.7155 11.5401L15.2531 63.6061C17.0609 63.6061 24.2021 63.6061 36.6801 63.6061ZM18.7153 52.7248C18.7753 52.6646 18.8087 52.6011 18.8087 52.5375L37.8975 63.984L37.8041 64.1713L18.7153 52.7248ZM19.0888 52.7248C19.0255 52.6646 18.9954 52.6011 18.9954 52.5375L31.9103 34.9013L32.0037 34.9949L19.0888 52.7248ZM19.0888 52.7248C19.0888 52.6646 19.0888 52.6011 19.0888 52.5375L39.3017 47.9395V48.0331L19.0888 52.7248ZM27.5109 27.6749C27.5709 27.6147 27.6043 27.5512 27.6043 27.4876L32.1905 34.8979L32.0037 34.9916L27.5109 27.6749ZM27.6043 80.2124C27.6043 80.1522 27.5709 80.0887 27.5109 80.0252L38.1777 66.8899L38.3645 67.0772L27.6043 80.2124ZM42.9507 80.8678C42.9507 80.8077 42.9507 80.7441 42.9507 80.6806L27.6043 80.0252V80.2124L42.9507 80.8678ZM32.0037 34.9916L31.9103 34.8979L39.2083 28.0494L39.3017 28.1431L32.0037 34.9916ZM32.0037 34.9916C32.0638 34.9916 32.1272 34.9615 32.1905 34.8979L39.1149 47.9395L39.0215 48.0331L32.0037 34.9916ZM37.5239 64.1679C37.4605 64.1077 37.4305 64.0442 37.4305 63.9807L39.1149 47.9395L39.3017 48.0331L37.5239 64.1679ZM37.8975 90.435V90.3414L69.4309 90.9032V91.0904L37.8975 90.435ZM38.3645 90.435C38.3011 90.3748 38.2377 90.3414 38.1777 90.3414L42.8573 80.6772L42.9507 80.8645L38.3645 90.435ZM42.9507 80.8678C43.0108 80.8077 43.0741 80.7441 43.1375 80.6806L38.4579 66.8899L38.3645 67.0772L42.9507 80.8678ZM39.3017 48.0331L39.2083 47.9395L52.1232 44.5621L52.2166 44.7494L39.3017 48.0331ZM39.3017 28.1431C39.3618 28.0829 39.4251 28.0494 39.4885 28.0494V10.6941L39.3017 10.8814V28.1431ZM39.3017 48.0331C39.3618 48.0331 39.4251 48.0031 39.4885 47.9395V28.0494L39.3017 28.1431V48.0331ZM39.3017 28.1431L39.3951 28.0494L52.31 44.5621L52.2166 44.7494L39.3017 28.1431ZM39.3017 48.0331L39.3951 47.9395L57.2665 64.9203L57.1731 65.1076L39.3017 48.0331ZM42.9507 80.8678C42.9507 80.8077 42.9507 80.7441 42.9507 80.6806L62.3197 75.1463L62.4131 75.2399L42.9507 80.8678ZM42.9507 80.8678C43.0108 80.8077 43.0441 80.7441 43.0441 80.6806L68.7772 90.9065V91.0938L42.9507 80.8678Z" fill="white"/>
<path d="M86.1816 16.2284C86.1183 16.2284 86.0883 16.1983 86.0883 16.1348L99.3734 0.468155L99.5602 0.655419L86.1816 16.2284ZM93.0127 41.9337C93.0727 41.8735 93.1361 41.81 93.1995 41.7464L86.275 16.1348L86.1816 16.2284L93.0127 41.9337ZM86.1816 16.2284L86.275 16.1348L99.1899 22.9833L99.0966 23.0769L86.1816 16.2284ZM86.9288 62.0111C86.8654 61.9509 86.802 61.8873 86.742 61.8238L92.8259 41.7464L93.0127 41.9337L86.9288 62.0111ZM86.9288 61.4493C86.9288 61.3891 86.9288 61.3255 86.9288 61.262L99.1866 65.1076L99.0932 65.2949L86.9288 61.4493ZM98.813 78.3331C98.8731 78.2729 98.9064 78.2094 98.9064 78.1458L87.0222 61.8238L86.9288 62.0111L98.813 78.3331ZM90.1108 91.6556C90.1108 91.5954 90.0775 91.5319 90.0174 91.4683L98.6263 78.1458L98.813 78.3331L90.1108 91.6556ZM99.0932 94.4712L99.1866 94.3776L90.2042 91.4683L90.1108 91.6556L99.0932 94.4712ZM98.3461 45.4048C98.3461 45.3446 98.3761 45.281 98.4395 45.2175L93.1061 41.7464L93.0127 41.9337L98.3461 45.4048ZM100.404 95.1266L99.5635 96.1599L97.7857 94.0031V1.78235L99.5635 0.280892L101.248 1.78235V94.0031C101.185 94.1268 100.901 94.5013 100.404 95.1266ZM99.5602 0.280892C99.5602 0.2207 99.5902 0.157164 99.6536 0.0936279L114.72 13.2288L114.626 13.4161L99.5602 0.280892ZM100.591 46.2508C100.527 46.2508 100.464 46.2207 100.404 46.1572L112.382 34.2425L112.475 34.4298L100.591 46.2508ZM110.884 68.8596C110.821 68.7994 110.757 68.7659 110.697 68.7659L100.404 93.9094L100.591 94.0967L110.884 68.8596ZM100.591 60.6032L100.497 60.5096L112.382 58.3527L112.475 58.54L100.591 60.6032ZM114.813 89.1242V89.0305L100.497 93.9094L100.591 94.0967L114.813 89.1242ZM112.475 58.54C112.475 58.4798 112.505 58.4163 112.568 58.3527L100.684 46.1572L100.591 46.2508L112.475 58.54ZM110.884 69.4213C110.884 69.3612 110.914 69.2976 110.977 69.2341L100.684 60.9778L100.591 61.165L110.884 69.4213ZM114.626 13.4161C114.563 13.3559 114.533 13.2924 114.533 13.2288L100.778 27.1131L100.871 27.3004L114.626 13.4161ZM100.871 27.3004C100.931 27.2402 100.964 27.1767 100.964 27.1131L112.568 34.2425L112.475 34.4298L100.871 27.3004ZM112.475 58.1655C112.412 58.1053 112.348 58.0417 112.288 57.9782L110.697 68.7659L110.884 68.8596L112.475 58.1655ZM110.884 68.8596C110.944 68.7994 111.007 68.7659 111.071 68.7659L115 89.0305L114.813 89.1242L110.884 68.8596ZM112.475 34.4298C112.412 34.3696 112.348 34.306 112.288 34.2425L114.44 13.2288L114.626 13.4161L112.475 34.4298ZM112.475 34.4298C112.412 34.3696 112.348 34.306 112.288 34.2425V57.9782L112.475 58.1655V34.4298Z" fill="white"/>
<path d="M12.5513 114.649C12.5246 114.746 12.4646 114.823 12.3745 114.88C12.3078 114.913 12.2378 114.93 12.1711 114.93C12.011 114.93 11.9009 114.866 11.8309 114.743C11.604 114.368 11.4039 114.04 11.2305 113.756C11.057 113.472 10.8602 113.161 10.6468 112.82C10.4333 112.479 10.2232 112.144 10.0197 111.817C9.74953 111.385 9.4927 111.051 9.24921 110.813C9.00572 110.576 8.79225 110.395 8.60547 110.278C8.41868 110.158 8.26525 110.088 8.14851 110.064C8.02843 110.041 7.95505 110.031 7.9217 110.031C7.83164 110.041 7.73825 110.051 7.64152 110.058C7.54479 110.064 7.4514 110.068 7.36134 110.068L5.65025 110.084V114.559C5.65025 114.662 5.61356 114.749 5.54018 114.823C5.4668 114.896 5.37341 114.933 5.26 114.933C5.14659 114.933 5.0532 114.896 4.97982 114.823C4.90644 114.749 4.86975 114.662 4.86975 114.559V109.71V103.072V103.055C4.86975 102.975 4.89643 102.908 4.95314 102.851C4.95314 102.841 4.95981 102.835 4.96981 102.835V102.818H4.98649L5.01985 102.784C5.0999 102.728 5.17661 102.701 5.25666 102.701L7.35467 102.734C7.95172 102.734 8.52542 102.821 9.07243 102.998C9.61945 103.176 10.1098 103.433 10.5367 103.771C10.9436 104.099 11.2772 104.49 11.5373 104.945C11.7842 105.399 11.9109 105.881 11.9109 106.389C11.9109 106.898 11.7875 107.382 11.5373 107.834C11.2772 108.309 10.9436 108.7 10.5367 109.008C10.3432 109.165 10.1364 109.309 9.90963 109.432C9.68282 109.556 9.446 109.666 9.19918 109.757C9.41265 109.917 9.64613 110.124 9.89295 110.389C10.1398 110.649 10.3999 110.997 10.6701 111.429C10.8836 111.76 11.1004 112.094 11.3139 112.435C11.5273 112.776 11.7241 113.091 11.8976 113.382C12.071 113.672 12.2745 114.004 12.5013 114.378C12.5647 114.458 12.578 114.552 12.5513 114.649ZM7.36467 109.299C7.43138 109.299 7.50476 109.295 7.57814 109.288C7.65152 109.282 7.72157 109.275 7.79161 109.262H7.875C8.32862 109.215 8.75556 109.108 9.15582 108.931C9.55607 108.757 9.90296 108.539 10.1898 108.285C10.48 108.031 10.7068 107.74 10.8769 107.412C11.047 107.085 11.1304 106.74 11.1304 106.376C11.1304 105.981 11.0303 105.607 10.8336 105.256C10.6368 104.905 10.3666 104.6 10.0264 104.339C9.68615 104.079 9.28924 103.871 8.82894 103.721C8.37198 103.567 7.88167 103.49 7.36134 103.49H7.34466L5.64691 103.457V109.312L7.34466 109.295H7.36467V109.299Z" fill="white"/>
<path d="M28.1346 114.896C27.3207 114.896 26.5236 114.732 25.7397 114.401C25.0026 114.094 24.3522 113.659 23.7885 113.091C23.2348 112.535 22.7912 111.883 22.4643 111.134C22.1474 110.385 21.9907 109.586 21.9907 108.733C21.9907 107.881 22.1474 107.081 22.4643 106.332C22.7812 105.607 23.2214 104.955 23.7885 104.376C24.3555 103.808 25.0059 103.373 25.7397 103.065C26.5202 102.738 27.3174 102.57 28.1346 102.57C28.9618 102.57 29.7523 102.734 30.5094 103.065C31.2332 103.36 31.8836 103.798 32.4607 104.376C33.0377 104.955 33.478 105.607 33.7849 106.332C34.1017 107.081 34.2585 107.881 34.2585 108.733C34.2585 109.586 34.0984 110.385 33.7849 111.134C33.468 111.883 33.0277 112.535 32.4607 113.091C31.8836 113.669 31.2332 114.107 30.5094 114.401C29.7523 114.732 28.9618 114.896 28.1346 114.896ZM28.1346 103.343C27.3974 103.343 26.707 103.487 26.0566 103.771C25.4062 104.055 24.8358 104.443 24.3522 104.931C23.8652 105.419 23.4816 105.991 23.1981 106.647C22.9146 107.302 22.7745 107.998 22.7745 108.737C22.7745 109.476 22.9146 110.175 23.1981 110.827C23.4816 111.482 23.8652 112.054 24.3522 112.542C24.8391 113.03 25.4062 113.418 26.0566 113.703C26.707 113.987 27.4008 114.131 28.1346 114.131C28.8717 114.131 29.5622 113.987 30.2126 113.703C30.863 113.418 31.43 113.03 31.9103 112.542C32.3906 112.054 32.7742 111.482 33.0577 110.827C33.3412 110.171 33.4813 109.476 33.4813 108.737C33.4813 107.998 33.3412 107.299 33.0577 106.647C32.7742 105.991 32.394 105.419 31.9103 104.931C31.43 104.443 30.863 104.055 30.2126 103.771C29.5622 103.487 28.8717 103.343 28.1346 103.343Z" fill="white"/>
<path d="M51.0425 108.797C51.5628 109.071 51.9864 109.462 52.31 109.974C52.6335 110.486 52.7936 111.054 52.7936 111.679C52.7936 112.134 52.7102 112.559 52.5401 112.957C52.37 113.355 52.1332 113.703 51.833 113.997C51.5328 114.291 51.1826 114.525 50.7857 114.696C50.3887 114.866 49.9651 114.95 49.5115 114.95L45.072 114.933C44.9586 114.933 44.8652 114.896 44.7918 114.823C44.7184 114.749 44.6818 114.662 44.6818 114.559V103.055C44.6818 102.952 44.7184 102.865 44.7918 102.791C44.8652 102.718 44.9586 102.681 45.072 102.681L49.5115 102.664C49.9651 102.664 50.3887 102.748 50.7857 102.918C51.1826 103.089 51.5328 103.319 51.833 103.614C52.1332 103.908 52.37 104.252 52.5401 104.65C52.7102 105.048 52.7936 105.473 52.7936 105.924C52.7936 106.546 52.6335 107.115 52.31 107.623C51.9864 108.131 51.5628 108.523 51.0425 108.797ZM45.4589 103.426V108.412H49.5048C49.8417 108.412 50.1653 108.349 50.4688 108.215C50.7723 108.085 51.0425 107.907 51.2726 107.68C51.5028 107.453 51.6862 107.185 51.8163 106.881C51.9464 106.573 52.0098 106.252 52.0098 105.911C52.0098 105.57 51.9464 105.249 51.8163 104.941C51.6862 104.634 51.5061 104.369 51.2726 104.142C51.0425 103.915 50.7723 103.737 50.4688 103.607C50.1653 103.477 49.8417 103.41 49.5048 103.41L45.4589 103.426ZM49.5082 114.181C49.8451 114.181 50.1686 114.117 50.4721 113.983C50.7757 113.853 51.0458 113.676 51.276 113.448C51.5061 113.221 51.6896 112.954 51.8197 112.649C51.9497 112.342 52.0131 112.021 52.0131 111.679C52.0131 111.338 51.9497 111.017 51.8197 110.71C51.6896 110.402 51.5095 110.138 51.276 109.91C51.0458 109.683 50.7757 109.506 50.4721 109.375C50.1686 109.245 49.8451 109.178 49.5082 109.178H45.4623V114.164L49.5082 114.181Z" fill="white"/>
<path d="M68.8272 114.896C68.0134 114.896 67.2162 114.732 66.4323 114.401C65.6952 114.094 65.0448 113.659 64.4811 113.091C63.9274 112.535 63.4838 111.883 63.1569 111.134C62.8401 110.385 62.6833 109.586 62.6833 108.733C62.6833 107.881 62.8401 107.081 63.1569 106.332C63.4738 105.607 63.9141 104.955 64.4811 104.376C65.0481 103.808 65.6985 103.373 66.4323 103.065C67.2128 102.738 68.01 102.57 68.8272 102.57C69.6544 102.57 70.4449 102.734 71.2021 103.065C71.9259 103.36 72.5763 103.798 73.1533 104.376C73.7303 104.955 74.1706 105.607 74.4775 106.332C74.7943 107.081 74.9511 107.881 74.9511 108.733C74.9511 109.586 74.791 110.385 74.4775 111.134C74.1606 111.883 73.7203 112.535 73.1533 113.091C72.5763 113.669 71.9259 114.107 71.2021 114.401C70.4449 114.732 69.6544 114.896 68.8272 114.896ZM68.8272 103.343C68.0901 103.343 67.3996 103.487 66.7492 103.771C66.0988 104.055 65.5284 104.443 65.0448 104.931C64.5578 105.419 64.1742 105.991 63.8907 106.647C63.6072 107.302 63.4671 107.998 63.4671 108.737C63.4671 109.476 63.6072 110.175 63.8907 110.827C64.1742 111.482 64.5578 112.054 65.0448 112.542C65.5318 113.03 66.0988 113.418 66.7492 113.703C67.3996 113.987 68.0934 114.131 68.8272 114.131C69.5643 114.131 70.2548 113.987 70.9052 113.703C71.5556 113.418 72.1226 113.03 72.6029 112.542C73.0833 112.054 73.4668 111.482 73.7503 110.827C74.0339 110.171 74.174 109.476 74.174 108.737C74.174 107.998 74.0339 107.299 73.7503 106.647C73.4668 105.991 73.0866 105.419 72.6029 104.931C72.1226 104.443 71.5556 104.055 70.9052 103.771C70.2548 103.487 69.5643 103.343 68.8272 103.343Z" fill="white"/>
<path d="M92.5423 102.858C92.6157 102.932 92.6524 103.018 92.6524 103.122C92.6524 103.226 92.6157 103.316 92.5423 103.393C92.469 103.473 92.3756 103.513 92.2622 103.513H88.3397V114.609C88.3397 114.712 88.303 114.799 88.2296 114.873C88.1562 114.947 88.0628 114.983 87.9494 114.983C87.836 114.983 87.7426 114.947 87.6692 114.873C87.5959 114.799 87.5592 114.712 87.5592 114.609V103.513H83.64C83.5266 103.513 83.4332 103.473 83.3598 103.393C83.2864 103.313 83.2498 103.222 83.2498 103.122C83.2498 103.022 83.2864 102.932 83.3598 102.858C83.4332 102.784 83.5266 102.748 83.64 102.748H92.2622C92.3756 102.744 92.469 102.784 92.5423 102.858Z" fill="white"/>
<path d="M106.755 115C106.301 115 105.884 114.96 105.497 114.88C105.114 114.799 104.757 114.686 104.427 114.539C103.893 114.254 103.483 113.896 103.186 113.465C103.049 113.285 102.949 113.101 102.879 112.913C102.812 112.726 102.759 112.559 102.725 112.412C102.692 112.265 102.672 112.144 102.665 112.054C102.659 111.964 102.655 111.914 102.655 111.9H103.436C103.436 112.024 103.453 112.151 103.486 112.275C103.509 112.388 103.549 112.515 103.606 112.659C103.663 112.8 103.743 112.94 103.843 113.077C104.387 113.85 105.354 114.234 106.745 114.234C108.136 114.234 109.103 113.826 109.647 113.01C109.84 112.716 109.957 112.439 110.003 112.178C110.047 111.917 110.07 111.776 110.07 111.753C110.07 111.743 110.067 111.699 110.06 111.626C110.053 111.552 110.037 111.459 110.01 111.345C109.983 111.231 109.94 111.101 109.883 110.954C109.827 110.807 109.747 110.66 109.647 110.512C109.103 109.683 108.136 109.272 106.745 109.272C106.211 109.272 105.751 109.218 105.36 109.111C104.97 109.004 104.63 108.867 104.343 108.703C104.053 108.539 103.813 108.359 103.623 108.158C103.429 107.961 103.276 107.764 103.166 107.57C103.042 107.356 102.946 107.145 102.876 106.941C102.809 106.737 102.755 106.553 102.722 106.389C102.689 106.225 102.669 106.095 102.662 105.998C102.655 105.901 102.652 105.848 102.652 105.837C102.652 105.827 102.655 105.774 102.662 105.684C102.669 105.593 102.689 105.476 102.722 105.336C102.755 105.195 102.806 105.032 102.876 104.851C102.942 104.67 103.046 104.483 103.182 104.289C103.343 104.062 103.523 103.865 103.726 103.694C103.93 103.523 104.163 103.37 104.423 103.236C105.08 102.942 105.854 102.794 106.748 102.794C107.268 102.794 107.725 102.845 108.122 102.948C108.519 103.052 108.859 103.179 109.15 103.333C109.44 103.487 109.677 103.661 109.863 103.861C110.05 104.058 110.207 104.249 110.33 104.43C110.454 104.634 110.554 104.834 110.627 105.035C110.701 105.232 110.754 105.409 110.787 105.563C110.821 105.717 110.841 105.841 110.847 105.938C110.854 106.035 110.857 106.088 110.857 106.098H110.077C110.067 105.961 110.043 105.827 110.01 105.69C109.987 105.567 109.947 105.426 109.89 105.272C109.833 105.119 109.753 104.965 109.653 104.804C109.11 103.975 108.142 103.564 106.751 103.564C105.337 103.564 104.363 103.948 103.833 104.717C103.729 104.864 103.656 105.001 103.603 105.132C103.553 105.262 103.516 105.379 103.493 105.48C103.459 105.603 103.443 105.724 103.443 105.837C103.443 105.975 103.459 106.115 103.493 106.262C103.516 106.386 103.556 106.533 103.613 106.704C103.669 106.874 103.753 107.038 103.866 107.195C104.387 108.078 105.347 108.519 106.751 108.519C107.272 108.519 107.729 108.566 108.126 108.663C108.523 108.76 108.859 108.887 109.143 109.048C109.426 109.208 109.663 109.382 109.857 109.576C110.05 109.77 110.207 109.957 110.33 110.138C110.454 110.332 110.554 110.526 110.627 110.716C110.701 110.91 110.754 111.081 110.787 111.228C110.821 111.375 110.841 111.499 110.847 111.596C110.854 111.693 110.857 111.746 110.857 111.756C110.857 111.766 110.854 111.823 110.847 111.92C110.841 112.017 110.821 112.141 110.787 112.295C110.754 112.449 110.701 112.622 110.627 112.816C110.554 113.01 110.454 113.204 110.33 113.395C110.013 113.873 109.593 114.248 109.073 114.522C108.446 114.833 107.672 115 106.755 115Z" fill="white"/>
</svg>
